<svg id="visual" viewBox="0 0 900 600" width="900" height="600" xmlns="http://www.w3.org/2000/svg" xmlns:xlink="http://www.w3.org/1999/xlink" version="1.1"><path d="M773 600L710 600L710 545L782 545L782 491L737 491L737 436L728 436L728 382L809 382L809 327L818 327L818 273L800 273L800 218L773 218L773 164L746 164L746 109L746 109L746 55L836 55L836 0L900 0L900 55L900 55L900 109L900 109L900 164L900 164L900 218L900 218L900 273L900 273L900 327L900 327L900 382L900 382L900 436L900 436L900 491L900 491L900 545L900 545L900 600L900 600Z" fill="#95d2e9"></path><path d="M692 600L620 600L620 545L656 545L656 491L611 491L611 436L638 436L638 382L746 382L746 327L728 327L728 273L710 273L710 218L638 218L638 164L638 164L638 109L683 109L683 55L764 55L764 0L837 0L837 55L747 55L747 109L747 109L747 164L774 164L774 218L801 218L801 273L819 273L819 327L810 327L810 382L729 382L729 436L738 436L738 491L783 491L783 545L711 545L711 600L774 600Z" fill="#80c6e1"></path><path d="M323 600L350 600L350 545L467 545L467 491L404 491L404 436L269 436L269 382L278 382L278 327L404 327L404 273L557 273L557 218L332 218L332 164L395 164L395 109L350 109L350 55L593 55L593 0L765 0L765 55L684 55L684 109L639 109L639 164L639 164L639 218L711 218L711 273L729 273L729 327L747 327L747 382L639 382L639 436L612 436L612 491L657 491L657 545L621 545L621 600L693 600Z" fill="#6bbada"></path><path d="M188 600L278 600L278 545L314 545L314 491L314 491L314 436L179 436L179 382L188 382L188 327L224 327L224 273L377 273L377 218L170 218L170 164L179 164L179 109L170 109L170 55L368 55L368 0L594 0L594 55L351 55L351 109L396 109L396 164L333 164L333 218L558 218L558 273L405 273L405 327L279 327L279 382L270 382L270 436L405 436L405 491L468 491L468 545L351 545L351 600L324 600Z" fill="#54aed3"></path><path d="M0 600L0 600L0 545L0 545L0 491L0 491L0 436L0 436L0 382L0 382L0 327L0 327L0 273L0 273L0 218L0 218L0 164L0 164L0 109L0 109L0 55L0 55L0 0L369 0L369 55L171 55L171 109L180 109L180 164L171 164L171 218L378 218L378 273L225 273L225 327L189 327L189 382L180 382L180 436L315 436L315 491L315 491L315 545L279 545L279 600L189 600Z" fill="#39a3cc"></path></svg>