<svg id="visual" viewBox="0 0 900 600" width="900" height="600" xmlns="http://www.w3.org/2000/svg" xmlns:xlink="http://www.w3.org/1999/xlink" version="1.1"><path d="M0 49L82 55L164 79L245 37L327 85L409 67L491 67L573 97L655 103L736 37L818 103L900 79L900 0L818 0L736 0L655 0L573 0L491 0L409 0L327 0L245 0L164 0L82 0L0 0Z" fill="#95d2e9"></path><path d="M0 253L82 211L164 301L245 253L327 247L409 313L491 187L573 337L655 229L736 175L818 229L900 229L900 77L818 101L736 35L655 101L573 95L491 65L409 65L327 83L245 35L164 77L82 53L0 47Z" fill="#80c6e1"></path><path d="M0 415L82 349L164 427L245 343L327 415L409 451L491 247L573 427L655 337L736 307L818 337L900 277L900 227L818 227L736 173L655 227L573 335L491 185L409 311L327 245L245 251L164 299L82 209L0 251Z" fill="#6bbada"></path><path d="M0 463L82 457L164 517L245 475L327 463L409 505L491 331L573 487L655 451L736 421L818 379L900 397L900 275L818 335L736 305L655 335L573 425L491 245L409 449L327 413L245 341L164 425L82 347L0 413Z" fill="#54aed3"></path><path d="M0 601L82 601L164 601L245 601L327 601L409 601L491 601L573 601L655 601L736 601L818 601L900 601L900 395L818 377L736 419L655 449L573 485L491 329L409 503L327 461L245 473L164 515L82 455L0 461Z" fill="#39a3cc"></path></svg>